HIERARCHY
ROOT Hips
{
  OFFSET 265.287 66.7526 -254.649
  CHANNELS 6 Xposition Yposition Zposition Zrotation Xrotation Yrotation
  JOINT LeftUpLeg
  {
    OFFSET 8.64259 1.95398 -2.38835
    CHANNELS 3 Zrotation Xrotation Yrotation
    JOINT LeftLeg
    {
      OFFSET 43.7702 0 0
      CHANNELS 3 Zrotation Xrotation Yrotation
      JOINT LeftFoot
      {
        OFFSET 40.6238 0 0
        CHANNELS 3 Zrotation Xrotation Yrotation
        JOINT LeftToeBase
        {
          OFFSET 12.7242 0 0
          CHANNELS 3 Zrotation Xrotation Yrotation
          End Site
          {
            OFFSET 0 0 0
          }
        }
      }
    }
  }
  JOINT RightUpLeg
  {
    OFFSET -8.2249 1.95398 -2.59336
    CHANNELS 3 Zrotation Xrotation Yrotation
    JOINT RightLeg
    {
      OFFSET 43.5653 0 0
      CHANNELS 3 Zrotation Xrotation Yrotation
      JOINT RightFoot
      {
        OFFSET 40.6238 0 0
        CHANNELS 3 Zrotation Xrotation Yrotation
        JOINT RightToeBase
        {
          OFFSET 12.7242 0 0
          CHANNELS 3 Zrotation Xrotation Yrotation
          End Site
          {
            OFFSET 0 0 0
          }
        }
      }
    }
  }
  JOINT Spine
  {
    OFFSET 0.165834 0.87714 6.61349
    CHANNELS 3 Zrotation Xrotation Yrotation
    JOINT Spine1
    {
      OFFSET 7.38963 1.71661e-005 0
      CHANNELS 3 Zrotation Xrotation Yrotation
      JOINT Spine2
      {
        OFFSET 11.9445 1.14441e-005 0
        CHANNELS 3 Zrotation Xrotation Yrotation
        JOINT Spine3
        {
          OFFSET 14.7254 4.19617e-005 0
          CHANNELS 3 Zrotation Xrotation Yrotation
          JOINT Spine4
          {
            OFFSET 10.9679 0 0
            CHANNELS 3 Zrotation Xrotation Yrotation
            JOINT RightShoulder
            {
              OFFSET 2.46616 -1.6653 3.69651
              CHANNELS 3 Zrotation Xrotation Yrotation
              JOINT RightArm
              {
                OFFSET 13.0012 0 0
                CHANNELS 3 Zrotation Xrotation Yrotation
                JOINT RightForeArm
                {
                  OFFSET 28.7848 1.52588e-005 0
                  CHANNELS 3 Zrotation Xrotation Yrotation
                  JOINT RightHand
                  {
                    OFFSET 26.5688 1.52588e-005 0
                    CHANNELS 3 Zrotation Xrotation Yrotation
                    End Site
                    {
                      OFFSET 0 0 0
                    }
                  }
                }
              }
            }
            JOINT LeftShoulder
            {
              OFFSET 2.38034 -1.29275 -3.7523
              CHANNELS 3 Zrotation Xrotation Yrotation
              JOINT LeftArm
              {
                OFFSET 16.3182 6.10351e-005 0
                CHANNELS 3 Zrotation Xrotation Yrotation
                JOINT LeftForeArm
                {
                  OFFSET 27.0901 0 0
                  CHANNELS 3 Zrotation Xrotation Yrotation
                  JOINT LeftHand
                  {
                    OFFSET 24.5451 1.52588e-005 0
                    CHANNELS 3 Zrotation Xrotation Yrotation
                    End Site
                    {
                      OFFSET 0 0 0
                    }
                  }
                }
              }
            }
            JOINT Neck
            {
              OFFSET 5.0226 -0.0266342 0
              CHANNELS 3 Zrotation Xrotation Yrotation
              JOINT Head
              {
                OFFSET 6.69364 2.86102e-005 0
                CHANNELS 3 Zrotation Xrotation Yrotation
                End Site
                {
                  OFFSET 0 0 0
                }
              }
            }
          }
        }
      }
    }
  }
}
MOTION
Frames:	10
Frame Time:	0.0416667
-0.485065 97.0061 -12.8506 122.312 -87.0057 121.543 -173.534 2.4532 91.0325 -11.9125 7.09377 2.40407 64.5111 2.10143 0.434489 29.0244 -0.231285 1.39088 174.599 1.7227 86.693 -13.3981 -5.64229 -0.90374 66.28 -2.09348 2.59317 29.8256 -0.081039 -0.671985 -0.327778 6.97732 -90.1426 12.9134 -0.719199 -0.198334 1.24264 -0.727228 -0.166478 -21.2937 -0.626336 -0.405308 -1.28103 -0.626339 -0.405314 98.9193 -52.9442 -87.0478 26.5022 -18.0429 -1.06671 8.50934 10.6575 -48.8361 1.89363 -0.15163 -10.7567 -85.8288 -53.111 85.1929 -22.1333 23.0114 -12.9219 -18.2648 -22.2255 -42.7974 0.841532 -0.258658 -10.3573 15.3173 0.282729 5.34146 -12.7758 -0.964871 -2.6749 
-0.527548 96.9875 -12.8199 126.13 -87.2904 125.287 -173.478 2.24324 91.0331 -11.5491 6.59732 2.33464 64.3995 2.01417 0.0646668 29.1923 -0.260003 1.19636 174.681 1.63607 86.6308 -13.2821 -5.45968 -1.07043 66.8381 -2.25585 3.48702 29.0495 0.0667948 -0.941212 -0.301806 6.97765 -90.1252 12.9255 -0.659251 -0.170459 1.25475 -0.666109 -0.141282 -21.2814 -0.577539 -0.360714 -1.26875 -0.577542 -0.360717 98.8823 -53.0572 -87.0963 26.4529 -18.2211 -0.986839 8.64676 10.7649 -48.9815 1.87856 -0.151651 -10.7144 -85.703 -53.0035 85.3626 -22.2395 22.8782 -12.934 -18.1981 -22.269 -42.4965 0.0201285 -0.228254 -10.9438 14.324 0.408812 4.8312 -11.2458 -0.720168 -2.31119 
-0.491186 97.004 -12.8231 129.009 -87.2547 128.325 -173.36 2.19843 91.1847 -11.7405 6.58589 2.33182 64.5291 2.02775 0.0514132 29.0531 -0.216412 1.17918 174.685 1.54057 86.7713 -13.3078 -5.74463 -0.99512 66.498 -2.22464 2.90479 29.2488 0.0323975 -0.906486 -0.28644 6.97724 -90.1465 12.9105 -0.638986 -0.215914 1.2397 -0.647865 -0.187633 -21.2963 -0.544556 -0.397965 -1.28363 -0.544551 -0.39797 98.991 -53.1092 -86.9305 26.2894 -18.3478 -1.17165 8.69745 10.8127 -48.5697 1.75049 -0.148342 -10.9532 -85.7479 -52.9941 85.2956 -22.2471 22.8279 -12.9822 -18.2912 -22.3898 -42.3936 -0.13203 -0.215918 -10.7774 14.151 0.291653 4.80841 -10.9759 -0.815064 -2.4703 
-0.496975 97.0045 -12.8232 128.394 -87.2892 127.644 -173.305 2.26389 91.1523 -11.7764 6.9409 2.23518 64.4911 2.08296 0.466321 29.1988 -0.247143 1.06217 174.668 1.6536 86.7008 -13.4168 -5.76745 -1.00276 66.5231 -2.17717 2.9662 29.4138 0.016221 -0.991008 -0.285577 6.9773 -90.1434 12.9184 -0.63573 -0.208231 1.24761 -0.644341 -0.179503 -21.2884 -0.54328 -0.391201 -1.27575 -0.543269 -0.391191 99.0584 -53.1428 -86.8277 26.2158 -18.3672 -1.30708 8.80591 10.8651 -48.5456 1.43415 -0.129884 -10.7955 -85.7841 -53.0312 85.2475 -22.1897 22.8388 -13.0665 -18.444 -22.5931 -42.3432 -0.116653 -0.218113 -10.8448 14.2654 0.135808 4.78146 -10.7718 -0.976045 -2.37082 
-0.490274 96.9918 -12.8162 128.528 -87.2564 127.842 -173.381 2.1485 91.1763 -11.5665 6.40663 2.34666 64.5666 2.05078 -0.0226387 29.0165 -0.179168 0.944693 174.697 1.5396 86.7703 -13.2703 -5.76932 -1.00173 66.4949 -2.20034 2.95399 29.478 0.0264607 -1.17596 -0.29895 6.97915 -90.1498 12.9151 -0.665348 -0.219017 1.24429 -0.674343 -0.189528 -21.2918 -0.56877 -0.408871 -1.27914 -0.568766 -0.408864 98.9728 -53.1799 -86.9538 26.1625 -18.3752 -1.32812 8.63846 10.7517 -48.5328 1.88579 -0.155972 -10.9587 -85.7305 -52.9388 85.3136 -22.3925 22.6248 -13.0309 -18.1166 -22.2729 -42.3589 -0.234045 -0.206874 -10.5983 14.4934 0.205336 4.69668 -11.0316 -0.899598 -2.2257 
-0.527563 97.0008 -12.8316 128.978 -87.1878 128.25 -173.311 2.18913 91.2009 -11.7707 6.61475 2.28385 64.617 2.06307 0.0482129 28.814 -0.143579 1.16853 174.684 1.53443 86.756 -13.3452 -5.82043 -0.999163 66.3754 -2.15949 2.7657 29.6231 -0.0161003 -0.989979 -0.297194 6.99193 -90.1453 12.8895 -0.659666 -0.210886 1.21874 -0.668316 -0.181656 -21.3173 -0.565799 -0.399404 -1.30469 -0.565793 -0.399405 98.9954 -53.1723 -86.9204 26.1146 -18.2403 -1.48074 8.46035 10.6223 -48.6121 2.00674 -0.162689 -10.9789 -85.7598 -52.733 85.2432 -22.659 22.3952 -13.2859 -17.7222 -21.996 -42.1139 -0.434618 -0.199458 -10.7971 15.056 0.0676333 4.55596 -11.6605 -1.0018 -2.29756 
-0.529677 97.0065 -12.828 131.551 -87.2545 130.825 -173.295 2.08335 91.2103 -11.6713 6.51842 2.27638 64.4369 1.98938 0.0502331 29.1644 -0.246026 1.14302 174.707 1.53713 86.7517 -13.4304 -5.8421 -1.03531 66.3267 -2.10834 2.92049 29.8951 -0.0759189 -0.821635 -0.270828 6.99863 -90.1568 12.8761 -0.612875 -0.239789 1.20524 -0.622838 -0.21259 -21.3306 -0.512475 -0.412898 -1.31796 -0.512479 -0.412908 98.9947 -52.9397 -86.9344 26.0834 -18.4336 -1.81336 9.10361 11.2373 -48.6045 1.9978 -0.165355 -11.1259 -85.7623 -52.6708 85.2316 -22.8112 21.8598 -13.9102 -17.8339 -22.3588 -41.5983 -0.804704 -0.181011 -11.0762 15.3396 0.0385883 4.61491 -11.9269 -1.05633 -2.24053 
-0.528458 97.0058 -12.7974 133.739 -87.3465 132.815 -173.265 1.78874 91.0706 -11.1957 6.60485 2.15012 64.2486 1.98746 0.26542 29.1666 -0.242077 1.10318 174.62 1.60963 86.5282 -13.6165 -5.87432 -1.0802 66.7614 -2.27068 3.18745 29.2678 0.0288527 -0.901784 -0.256365 6.99305 -90.1414 12.8873 -0.576783 -0.213271 1.21647 -0.585609 -0.187689 -21.3193 -0.48602 -0.376772 -1.30669 -0.486021 -0.376763 98.8655 -52.5285 -87.1538 25.9889 -18.8482 -2.28166 9.45185 11.4751 -48.5417 1.31791 -0.119317 -10.4769 -85.6084 -52.5271 85.4376 -23.0334 21.1332 -14.8843 -18.6473 -23.5208 -41.0637 -1.58144 -0.137707 -11.1508 15.2402 0.0461595 4.66481 -11.7355 -1.06445 -2.21249 
-0.583923 96.9999 -12.7826 140.124 -87.5445 139.089 -173.095 1.61241 91.0706 -11.0736 6.68729 1.95637 64.3214 2.05564 0.650826 29.0076 -0.201408 1.16785 174.725 1.76063 86.5151 -13.9139 -6.1866 -1.2126 66.571 -2.18954 2.90594 29.747 -0.0784802 -0.584167 -0.217949 6.96991 -90.1309 12.9336 -0.495498 -0.201759 1.26277 -0.503892 -0.17976 -21.2728 -0.411954 -0.341343 -1.26017 -0.41195 -0.341345 98.8296 -51.8544 -87.2486 25.8473 -19.8164 -3.3018 10.1275 11.9401 -48.1404 0.765352 -0.0973911 -10.8645 -85.601 -52.2479 85.4122 -22.977 20.8452 -16.1057 -19.7944 -24.9117 -40.9478 -0.835922 -0.179913 -11.0285 14.7447 0.0974872 4.86823 -11.6334 -1.04371 -2.30839 
-0.523063 96.981 -12.9934 119.101 -86.5183 118.385 -173.558 2.6059 91.1143 -12.0126 6.85248 2.48161 64.5364 2.03369 -0.175486 28.9328 -0.150112 0.910277 174.678 1.6995 86.8141 -13.5224 -4.98992 -0.946223 66.3315 -2.05001 2.83925 29.9428 -0.0869947 -0.780971 -0.368246 6.92037 -90.1538 13.0326 -0.804928 -0.209211 1.36192 -0.81335 -0.173574 -21.1747 -0.704833 -0.441457 -1.16209 -0.70484 -0.441462 98.9751 -51.3579 -87.0569 25.3847 -21.1616 -4.85051 11.7708 13.2385 -48.2561 0.0231404 -0.0610095 -11.1108 -85.4631 -52.1911 85.6074 -22.1587 20.7047 -17.8696 -20.3356 -25.4185 -41.137 -0.79172 -0.178672 -10.7863 14.4783 0.0173877 4.98942 -12.1319 -1.10391 -2.69003 
